<?xml version="1.0" standalone="no"?>
<!DOCTYPE svg PUBLIC "-//W3C//DTD SVG 20010904//EN"
 "http://www.w3.org/TR/2001/REC-SVG-20010904/DTD/svg10.dtd">
<svg version="1.0" xmlns="http://www.w3.org/2000/svg"
 width="7560.000000pt" height="7560.000000pt" viewBox="0 0 7560.000000 7560.000000"
 preserveAspectRatio="xMidYMid meet">

<g transform="translate(0.000000,7560.000000) scale(0.100000,-0.100000)"
fill="#000000" stroke="none">
<path d="M24631 59114 c-63 -8 -117 -17 -120 -20 -3 -3 -8 -84 -9 -180 l-4
-173 -31 -6 c-18 -3 -173 -20 -346 -39 -172 -19 -316 -37 -318 -40 -7 -7 37
-409 45 -418 4 -3 52 -18 106 -32 55 -15 101 -28 103 -30 3 -2 -4524 -3683
-4702 -3823 -40 -32 -46 -33 -226 -53 -209 -23 -263 -34 -334 -65 -111 -49
-216 -162 -275 -295 l-29 -65 -866 -96 c-477 -53 -886 -102 -908 -109 -175
-51 -330 -226 -382 -429 -9 -35 -18 -107 -20 -160 l-5 -96 -100 -11 c-55 -6
-103 -14 -106 -17 -6 -6 51 -525 59 -533 3 -3 291 18 641 47 349 29 638 51
641 48 2 -3 14 -88 26 -190 11 -101 22 -186 24 -187 2 -2 82 5 177 16 95 11
176 17 180 13 3 -3 30 -223 59 -488 l54 -483 25 0 c24 0 1934 211 1936 214 1
0 -25 233 -56 516 -32 283 -56 517 -54 519 2 2 127 17 278 34 266 30 275 31
271 51 -7 35 -27 228 -23 231 6 5 3117 259 3121 255 4 -5 -162 -2382 -166
-2387 -2 -1 -43 -6 -92 -10 -89 -8 -90 -8 -93 -36 l-3 -27 -212 2 -212 3 -3
178 -2 177 -45 0 c-42 0 -45 -2 -46 -27 0 -16 -18 -305 -40 -643 -23 -338 -43
-684 -45 -769 l-5 -154 158 7 c145 6 1485 36 1631 36 l62 0 0 -595 0 -595
-120 0 -120 0 0 -305 0 -305 75 0 75 0 0 -2522 c0 -1388 3 -4707 7 -7375 l6
-4853 189 0 c103 0 188 3 188 6 0 3 -13 25 -30 49 l-30 44 0 565 c0 311 3 566
8 566 4 0 42 -53 85 -118 l77 -118 0 -497 0 -497 165 0 165 0 2 246 3 247 153
-229 c83 -126 152 -237 152 -247 0 -15 15 -17 160 -17 l160 0 0 213 0 212 130
195 130 195 0 -407 0 -408 165 0 165 0 0 7375 0 7375 60 0 60 0 -2 303 -3 302
-132 3 -133 3 0 594 0 595 -115 0 c-92 0 -115 3 -115 14 0 19 97 23 1155 42
490 8 896 17 903 19 9 4 12 160 12 740 l0 735 -49 0 -49 0 -6 -127 c-4 -71 -9
-152 -13 -180 l-5 -53 -309 0 -309 0 0 155 0 155 -50 0 -50 0 0 1260 0 1260
23 4 c27 6 9464 956 9493 956 20 0 22 -9 33 -107 7 -59 14 -111 17 -115 3 -4
104 -88 225 -188 250 -204 212 -188 409 -165 69 8 126 15 127 15 1 0 3 -15 5
-32 3 -32 5 -33 51 -36 26 -2 47 -6 47 -10 0 -4 88 -913 196 -2020 108 -1107
195 -2015 193 -2016 -2 -2 -157 -27 -344 -55 -187 -28 -351 -55 -364 -59 -20
-6 -47 -57 -156 -292 -73 -157 -131 -286 -131 -287 1 -1 201 20 445 48 245 27
445 48 446 47 3 -3 55 -378 55 -391 0 -3 -25 -9 -55 -12 -30 -4 -57 -10 -59
-14 -7 -12 41 -211 55 -229 8 -9 46 -52 83 -95 l69 -78 55 2 c41 2 57 -1 60
-12 3 -8 9 -17 15 -20 5 -4 13 -28 18 -55 11 -60 29 -87 82 -124 68 -47 77
-58 77 -94 0 -41 -37 -76 -81 -76 -33 0 -80 44 -110 102 -18 34 -44 58 -53 47
-2 -2 0 -34 4 -72 9 -82 43 -137 104 -167 121 -58 261 18 274 148 7 80 -38
147 -134 195 -37 19 -70 77 -59 103 4 11 7 26 6 35 -1 12 10 18 47 23 27 3 56
14 65 24 8 9 36 62 62 117 l47 100 -6 104 c-4 57 -9 107 -11 111 -2 4 -28 3
-57 -1 -29 -5 -55 -5 -59 -1 -9 9 -54 370 -47 377 2 3 191 25 419 50 228 25
426 49 441 53 27 7 26 9 -148 237 -97 127 -184 239 -194 250 l-19 20 -351 -24
c-201 -13 -355 -20 -359 -15 -7 8 -422 3958 -421 4007 0 13 9 17 40 17 l40 0
0 50 c0 28 1 50 3 50 1 0 40 5 86 10 l84 11 241 234 242 235 -12 102 c-6 57
-9 106 -5 110 3 3 1482 155 3286 337 l3280 331 553 202 553 203 -6 285 c-3
157 -8 309 -11 339 l-6 54 -121 -7 c-67 -3 -196 -7 -287 -7 l-165 -2 -896 492
c-565 309 -906 491 -924 491 -15 0 -1758 -196 -3873 -436 l-3847 -435 -1395
301 c-1278 275 -8963 2012 -8982 2029 -4 3 -10 39 -14 79 -6 64 -9 72 -28 72
-12 0 -149 -14 -304 -31 -209 -24 -286 -29 -291 -21 -4 7 -29 84 -56 172 l-49
160 -40 -1 c-23 -1 -92 -8 -155 -15z m5964 -1664 c2749 -611 5001 -1112 5003
-1114 6 -7 -64 -15 -1373 -162 l-1310 -147 -3702 1232 c-2037 678 -3703 1234
-3703 1236 0 2 10 20 21 40 17 28 27 35 43 31 12 -3 2271 -505 5021 -1116z
m-1736 -186 c1873 -614 3503 -1148 3621 -1187 214 -70 215 -71 170 -79 -25 -4
-1384 -159 -3020 -343 -1636 -185 -2984 -338 -2996 -340 -14 -3 -75 -91 -198
-285 -98 -154 -181 -280 -185 -280 -7 0 -931 3413 -931 3439 0 20 110 191 123
191 6 0 1543 -502 3416 -1116z m-4695 -1024 c-35 -1020 -64 -1891 -65 -1935
l-1 -80 -14 50 c-44 151 -112 272 -200 357 -92 87 -235 148 -351 148 -36 0
-798 -81 -1692 -180 -894 -99 -1635 -179 -1645 -178 -14 2 558 527 2004 1840
1114 1010 2025 1836 2026 1835 1 -1 -27 -837 -62 -1857z m806 1850 c0 -11
-209 -420 -215 -420 -1 0 -64 81 -139 180 -126 165 -135 180 -114 185 35 8
409 63 441 64 15 1 27 -4 27 -9z m216 -316 c36 -131 67 -247 70 -257 5 -17 4
-17 -31 0 -41 20 -36 1 -75 258 -17 110 -33 211 -36 225 -3 14 -3 22 0 19 4
-3 36 -113 72 -245z m-577 -53 c72 -96 129 -176 127 -178 -5 -6 -216 -32 -258
-33 l-28 0 0 207 c0 176 2 205 14 193 7 -8 73 -93 145 -189z m399 7 l18 -156
-36 -6 c-19 -3 -72 -8 -116 -12 l-81 -7 95 189 c63 123 98 182 100 168 1 -11
11 -91 20 -176z m36 -320 c8 -74 8 -75 -93 -449 -56 -206 -105 -382 -109 -392
-5 -13 -60 90 -200 376 -155 319 -192 402 -192 436 0 22 1 41 3 42 10 4 564
66 572 64 6 -1 14 -35 19 -77z m209 2 c31 -12 39 -21 48 -55 6 -22 74 -269
150 -549 77 -280 138 -510 137 -511 -2 -1 -53 22 -114 51 l-110 52 -39 248
c-21 137 -57 370 -80 517 -23 147 -39 266 -36 265 3 -2 23 -10 44 -18z m-2248
-259 c-28 -26 -700 -644 -1495 -1371 -795 -728 -1460 -1337 -1477 -1353 -33
-31 -34 -31 -280 -58 -136 -16 -249 -27 -250 -25 -3 3 3539 2854 3547 2855 3
1 -18 -21 -45 -48z m1634 -390 c100 -205 180 -375 178 -377 -4 -5 -326 -44
-359 -44 -17 0 -18 23 -18 339 0 282 6 471 15 459 1 -2 84 -171 184 -377z
m477 0 c20 -177 34 -327 31 -334 -3 -9 -47 -18 -132 -26 -69 -7 -128 -11 -129
-10 -3 4 36 147 160 602 15 54 28 96 30 94 2 -2 20 -148 40 -326z m18252 -31
c-45 -94 -85 -167 -89 -163 -11 12 -170 295 -167 298 5 4 258 32 300 34 l37 1
-81 -170z m448 -138 c126 -221 149 -268 135 -274 -15 -6 -447 -59 -483 -58
-10 0 -29 19 -43 44 l-25 44 126 256 c70 141 130 256 133 256 3 0 74 -120 157
-268z m-1170 16 c-57 -117 -133 -272 -169 -344 -74 -147 -59 -136 -199 -150
l-66 -7 -321 289 c-176 158 -318 290 -316 292 5 5 1085 129 1137 131 l37 1
-103 -212z m412 -57 c62 -109 112 -204 112 -210 0 -6 -13 -37 -29 -69 l-29
-58 -228 -27 c-125 -15 -229 -26 -231 -24 -4 5 280 587 287 587 3 0 56 -89
118 -199z m1271 -16 c139 -77 249 -141 244 -142 -6 -2 -94 -14 -197 -26 -130
-16 -189 -20 -196 -13 -11 14 -210 366 -210 373 0 3 24 -8 53 -24 28 -17 166
-92 306 -168z m-2703 -167 c172 -155 314 -285 314 -289 0 -3 -106 -18 -235
-34 l-234 -28 -38 34 c-21 19 -100 90 -176 158 l-137 124 33 61 c121 218 143
256 150 256 4 0 150 -127 323 -282z m-613 181 l-46 -80 -31 28 c-17 15 -50 46
-74 68 l-43 40 83 11 c46 6 100 12 120 13 l37 1 -46 -81z m-671 -31 c-11 -18
-95 -168 -187 -333 -93 -165 -176 -312 -186 -326 -16 -22 -28 -26 -119 -37
l-102 -12 -33 28 c-18 15 -173 149 -344 297 -253 219 -308 271 -289 273 95 14
1211 140 1241 141 l39 1 -20 -32z m385 -100 c94 -85 133 -127 130 -139 -2 -9
-48 -93 -101 -187 -89 -157 -98 -170 -128 -175 -78 -14 -409 -50 -414 -45 -3
3 65 131 152 284 216 387 215 384 221 384 2 0 65 -55 140 -122z m-1579 -352
c178 -154 319 -282 315 -286 -4 -4 -109 -19 -232 -33 -213 -25 -225 -25 -247
-9 -12 9 -108 91 -213 182 l-190 165 16 25 c9 14 54 80 100 148 l84 122 23
-17 c12 -10 167 -144 344 -297z m-644 262 c-4 -7 -23 -35 -42 -61 l-34 -48
-50 43 c-28 24 -50 48 -49 53 1 10 62 21 139 23 32 2 41 -1 36 -10z m-13394
-5 c0 -17 -235 -853 -240 -853 -5 0 -403 756 -408 775 -2 7 110 23 315 47 175
19 321 36 326 37 4 0 7 -2 7 -6z m396 -84 c60 -28 111 -53 113 -55 8 -7 308
-1114 302 -1113 -3 0 -96 80 -206 177 l-200 178 -61 389 c-33 215 -64 409 -67
433 -4 23 -3 42 1 42 5 0 58 -23 118 -51z m12296 -1 c-11 -17 -52 -77 -90
-133 l-71 -103 -108 24 c-59 13 -218 47 -353 75 -135 29 -248 55 -252 58 -4 4
192 29 435 57 243 28 446 52 450 53 5 0 0 -13 -11 -31z m406 -92 c63 -54 101
-94 98 -102 -3 -8 -28 -47 -55 -88 l-50 -74 -133 29 c-73 16 -150 32 -170 35
-21 4 -38 11 -38 15 0 5 46 77 102 159 100 147 102 149 123 132 11 -9 67 -57
123 -106z m2902 -72 c47 -42 86 -79 88 -83 3 -7 -279 -43 -286 -36 -5 4 101
195 108 195 3 0 43 -34 90 -76z m-4057 -59 c259 -57 482 -107 495 -110 21 -5
15 -18 -104 -193 -70 -103 -129 -189 -131 -191 -7 -9 -298 -40 -307 -32 -655
500 -777 596 -756 599 82 12 243 30 283 31 28 0 242 -42 520 -104z m-12423
-275 c99 -189 180 -347 180 -352 0 -4 -8 -8 -17 -8 -19 0 -246 -25 -320 -35
l-43 -6 0 314 c0 278 6 444 16 434 2 -2 85 -158 184 -347z m601 -3 c17 -164
30 -299 28 -301 -6 -5 -310 -39 -313 -35 -2 2 51 157 117 343 94 265 123 334
128 315 4 -13 22 -158 40 -322z m11109 12 c209 -161 377 -296 373 -299 -5 -4
-107 -19 -227 -33 l-219 -26 -241 185 c-133 102 -242 189 -244 195 -2 5 31 70
73 145 52 92 81 134 91 130 7 -3 184 -137 394 -297z m-660 265 c0 -10 -61
-114 -67 -114 -10 0 -133 94 -129 98 13 13 196 27 196 16z m10078 -101 c-3
-36 -5 -38 -41 -41 -30 -3 -50 4 -90 30 l-51 33 29 6 c17 4 58 7 93 8 l63 1
-3 -37z m-10778 20 c0 -9 -261 -472 -269 -477 -11 -7 -994 312 -1010 328 -13
14 -13 16 -1 17 8 0 281 31 605 68 589 69 675 77 675 64z m391 -104 c76 -57
138 -108 138 -113 1 -7 -225 -416 -243 -443 -2 -3 -419 -53 -440 -53 -17 0
-13 11 29 77 1 2 26 -5 55 -15 51 -18 56 -18 148 0 53 10 97 20 99 22 2 1 -53
20 -122 42 -70 22 -124 44 -123 50 8 29 304 544 312 541 5 -2 72 -50 147 -108z
m3172 28 c31 -28 55 -52 53 -54 -5 -5 -166 26 -179 34 -4 2 5 22 20 43 15 21
32 35 38 32 5 -3 36 -28 68 -55z m-587 -43 c87 -19 160 -37 163 -40 4 -4 -109
-174 -117 -174 -2 0 -96 -11 -209 -25 -113 -14 -208 -23 -210 -21 -7 7 191
295 203 296 6 0 82 -16 170 -36z m-4158 -364 c209 -168 379 -306 377 -308 -1
-1 -106 -15 -232 -30 l-231 -28 -148 119 c-82 65 -206 165 -275 221 l-127 102
98 114 c95 111 123 134 146 121 6 -3 183 -143 392 -311z m-739 263 c-7 -10
-22 -28 -32 -40 l-20 -22 -33 26 c-19 14 -34 29 -34 34 0 4 21 10 48 12 26 2
55 4 66 5 16 2 17 0 5 -15z m5421 -15 c95 -20 102 -23 70 -30 -67 -15 -270
-34 -270 -26 0 4 12 26 28 48 20 30 32 39 47 35 11 -2 67 -15 125 -27z m-5697
-122 c48 -38 87 -73 87 -77 0 -4 -110 -135 -244 -291 l-243 -284 -192 -23
c-106 -13 -194 -21 -196 -19 -2 1 148 179 332 395 292 341 338 390 353 380 9
-7 55 -43 103 -81z m-414 57 c-8 -10 -162 -191 -343 -403 -181 -212 -330 -386
-330 -387 -1 -1 -80 -11 -177 -23 l-176 -21 -502 308 c-276 169 -497 309 -490
312 13 4 1967 228 2008 230 21 1 22 -1 10 -16z m1941 -155 c184 -61 338 -113
342 -116 5 -6 -69 -148 -89 -171 -2 -3 -26 -8 -54 -11 l-51 -7 -267 215 c-146
118 -255 211 -241 207 14 -4 176 -57 360 -117z m1517 1 c79 -61 141 -115 136
-119 -8 -7 -444 -62 -450 -57 -3 4 158 287 164 287 2 0 70 -50 150 -111z
m-5304 -410 c273 -167 494 -305 493 -307 -7 -6 -421 -52 -433 -48 -7 3 -175
105 -373 226 -344 211 -359 222 -348 243 12 23 78 134 105 175 10 17 22 23 38
20 12 -3 246 -142 518 -309z m2716 140 c105 -84 189 -154 187 -156 -5 -5 -739
-94 -742 -90 -8 7 343 406 353 402 7 -2 98 -73 202 -156z m-3530 106 c-12 -19
-24 -37 -28 -39 -4 -3 -29 8 -56 24 -60 35 -54 38 82 48 l22 2 -20 -35z
m-4499 17 c0 -8 -282 -650 -298 -678 -6 -11 -67 73 -216 291 -115 169 -205
309 -201 313 7 7 607 79 678 81 20 0 37 -3 37 -7z m560 -242 c91 -79 173 -150
183 -159 20 -19 122 -381 110 -391 -15 -13 -386 -91 -393 -83 -6 7 -130 790
-130 822 0 10 11 4 33 -15 17 -17 106 -95 197 -174z m3663 95 c137 -84 145
-91 133 -110 -7 -11 -79 -132 -161 -268 -82 -137 -156 -252 -164 -256 -21 -11
-419 -56 -427 -49 -5 5 418 727 449 766 13 16 -1 23 170 -83z m-406 78 c-2 -5
-111 -186 -241 -404 l-237 -396 -93 -11 -93 -12 -608 308 c-357 180 -599 309
-589 311 27 5 1804 209 1837 210 16 1 26 -2 24 -6z m-3707 -347 c17 -153 30
-280 28 -281 -4 -4 -352 -43 -356 -40 -1 1 64 141 145 310 81 169 148 303 150
299 1 -5 16 -134 33 -288z m-494 -330 c3 -9 -43 -17 -163 -30 -92 -9 -185 -20
-205 -23 l-38 -6 0 164 c0 90 3 234 7 321 l6 156 194 -285 c107 -157 197 -290
199 -297z m5179 248 c141 -87 253 -159 251 -161 -6 -6 -728 -94 -742 -91 -9 3
223 408 233 408 2 0 118 -70 258 -156z m-2427 -219 c227 -114 410 -211 405
-215 -4 -4 -93 -17 -196 -29 l-188 -22 -332 170 -332 169 -37 139 c-21 76 -38
142 -38 146 0 5 69 -27 153 -71 83 -44 338 -173 565 -287z m-884 210 c3 -8 1
-15 -4 -15 -6 0 -10 7 -10 15 0 8 2 15 4 15 2 0 6 -7 10 -15z m-25 -224 l95
-48 37 -144 c21 -79 35 -146 33 -149 -3 -2 -47 -9 -97 -15 l-92 -10 -45 -160
c-25 -88 -48 -166 -50 -172 -3 -8 -34 -15 -80 -19 l-75 -6 -46 180 -46 181
131 205 c72 113 133 206 136 205 3 0 47 -22 99 -48z m-3026 19 c70 -22 152
-77 199 -135 17 -20 29 -37 27 -39 -9 -6 -611 -68 -616 -63 -5 6 -32 219 -28
224 4 6 234 31 291 32 37 1 88 -7 127 -19z m-493 -22 c5 -25 27 -224 25 -226
-4 -4 -1158 -133 -1161 -129 -7 7 -26 218 -20 224 10 10 1155 139 1156 131z
m2215 -95 c3 -27 8 -64 11 -84 5 -32 2 -37 -18 -42 -22 -6 -804 -185 -895
-205 l-43 -10 0 142 0 142 453 51 c248 28 460 51 469 52 13 1 18 -10 23 -46z
m-3437 -155 c6 -61 11 -113 9 -114 -10 -10 -464 -52 -517 -47 -42 3 -167 -6
-353 -27 -159 -17 -290 -30 -292 -28 -6 6 -28 198 -24 202 6 4 1079 124 1125
125 l40 1 12 -112z m5302 -39 c0 -6 -132 -23 -179 -24 -14 0 -18 12 -45 118
l-6 27 115 -57 c63 -32 115 -61 115 -64z m-3280 -17 c16 -55 43 -223 37 -228
-7 -6 -679 -155 -682 -152 -8 8 -46 370 -40 376 7 7 647 80 657 75 4 -2 17
-34 28 -71z m-3263 -67 c7 -54 11 -100 9 -102 -5 -5 -960 -112 -964 -108 -2 2
161 154 234 218 18 15 80 25 355 56 184 21 339 38 344 37 6 -2 16 -47 22 -101z
m2503 40 c0 -8 9 -94 20 -192 11 -97 18 -178 16 -180 -8 -8 -1138 -264 -1143
-259 -5 4 -64 519 -60 522 6 3 1089 122 1125 123 31 1 42 -3 42 -14z m-3380
-39 c0 -9 -255 -236 -265 -236 -10 0 -40 199 -32 207 3 3 235 30 270 32 15 0
27 -1 27 -3z m-366 -78 c19 -144 19 -168 0 -168 -11 0 -116 -11 -234 -25 -118
-13 -215 -23 -217 -21 -1 1 63 56 143 121 138 111 150 118 203 125 102 13 98
15 105 -32z m-349 -7 c-6 -4 -71 -58 -146 -119 l-136 -110 -84 -10 c-46 -6
-86 -9 -88 -6 -2 2 13 29 34 60 87 126 210 186 395 193 19 0 30 -3 25 -8z
m2855 -3 c1 -7 13 -125 29 -263 15 -137 26 -253 24 -257 -2 -5 -15 -8 -28 -8
-25 0 -26 2 -45 90 -7 30 -32 98 -57 150 -39 81 -59 107 -133 181 l-87 86 136
15 c75 8 142 16 149 17 6 0 12 -5 12 -11z m-475 -104 c33 -8 80 -27 105 -41
45 -27 140 -115 140 -131 0 -9 -606 -79 -614 -71 -6 6 -30 219 -25 224 6 5
234 32 289 34 25 0 73 -6 105 -15z m-457 -138 c7 -60 10 -111 7 -115 -12 -12
-207 -27 -211 -17 -5 15 -24 175 -24 202 0 20 8 22 88 32 137 15 125 24 140
-102z m5162 21 c7 -31 11 -59 9 -61 -2 -2 -35 -6 -72 -10 l-68 -7 37 58 c69
108 67 106 75 91 4 -7 13 -39 19 -71z m-5452 -56 c7 -62 12 -114 10 -115 -6
-5 -870 -98 -872 -94 -5 6 -26 221 -22 225 5 5 847 101 861 98 6 -1 16 -52 23
-114z m-948 -102 c6 -61 10 -112 8 -115 -6 -5 -143 -23 -184 -24 l-30 0 -12
112 c-6 61 -10 113 -9 115 5 4 135 20 178 22 l36 1 13 -111z m-411 64 c-1 -13
-275 -258 -290 -261 -8 -1 -111 -13 -229 -26 -160 -18 -217 -21 -222 -13 -4 7
-8 31 -8 55 0 23 -1 45 -2 49 -1 4 33 36 76 72 l77 64 282 32 c330 38 317 37
316 28z m126 -130 c7 -81 7 -82 -16 -87 -33 -7 -222 -26 -226 -23 -1 2 48 49
110 104 61 56 115 98 118 95 4 -4 10 -44 14 -89z m2294 50 c19 -48 39 -138 32
-144 -6 -6 -682 -82 -686 -77 -5 5 -24 173 -20 176 5 5 572 69 621 71 36 1 43
-2 53 -26z m-3329 -65 l0 -53 -96 -77 c-53 -43 -103 -78 -113 -79 -9 0 -206
-21 -438 -47 l-421 -48 -6 36 c-3 19 -8 72 -12 118 -7 82 -7 82 17 83 13 0
254 26 534 58 281 32 516 59 523 60 8 1 12 -16 12 -51z m2584 -25 c3 -21 8
-61 11 -89 l6 -51 -38 -6 c-21 -3 -70 -9 -109 -13 l-72 -6 -6 63 c-4 35 -9 76
-12 91 -5 26 -4 27 53 33 32 3 65 8 73 9 8 2 31 4 52 5 35 1 36 -1 42 -36z
m-290 -30 c3 -21 8 -61 11 -90 l7 -52 -34 -5 c-31 -6 -748 -83 -813 -89 -28
-2 -30 0 -37 46 -3 27 -8 67 -10 90 l-3 42 410 46 c226 26 422 47 437 48 23 1
27 -4 32 -36z m-3461 -37 c4 -10 21 -171 22 -211 0 -8 -824 -107 -833 -100 -9
8 43 89 88 138 53 58 109 96 173 116 28 10 342 50 533 70 7 0 14 -5 17 -13z
m2521 -137 l7 -76 -73 -7 c-40 -4 -89 -10 -109 -13 l-36 -5 -8 87 c-4 47 -4
89 0 93 3 4 50 11 103 17 113 12 106 18 116 -96z m-290 -17 c4 -46 6 -85 4
-87 -6 -7 -608 -71 -608 -65 0 5 87 86 183 170 36 32 44 34 185 50 81 10 165
17 187 17 l40 -2 9 -83z m-1054 68 c0 -5 -7 -10 -16 -10 -8 0 -12 5 -9 10 3 6
10 10 16 10 5 0 9 -4 9 -10z m500 -44 c0 -2 -50 -49 -111 -105 -110 -102 -110
-102 -157 -99 l-47 3 -9 83 c-4 46 -7 85 -5 87 11 9 329 40 329 31z m-486 -73
c3 -16 8 -56 11 -90 7 -59 6 -62 -17 -67 -43 -9 -410 -47 -414 -43 -3 3 51 50
120 106 123 100 125 101 193 110 104 13 101 14 107 -16z m-345 -17 c-2 -2 -60
-49 -128 -104 -90 -74 -133 -102 -160 -106 -87 -14 -423 -48 -427 -44 -6 7
-26 170 -20 175 4 5 659 80 710 82 16 1 27 -1 25 -3z m-802 -173 c6 -49 9 -89
8 -90 -4 -6 -899 -103 -903 -98 -7 7 -4 121 3 155 l6 26 407 46 c224 25 421
46 438 47 l32 1 9 -87z m10393 -2900 c0 -115 -3 -279 -7 -365 l-6 -157 -124
-3 c-103 -2 -124 -1 -127 12 -3 8 -8 171 -11 362 l-7 347 68 4 c38 1 102 4
142 5 l72 2 0 -207z m147 165 c-4 -24 -14 -184 -23 -355 -10 -172 -21 -318
-25 -325 -6 -9 -11 -9 -18 -3 -9 10 -32 703 -24 718 2 4 25 7 50 7 l45 0 -5
-42z m-483 -260 c-3 -161 -7 -326 -10 -365 l-6 -73 -59 0 -59 0 0 365 0 365
69 0 69 0 -4 -292z m-4510 -141 c-3 -205 -7 -382 -10 -394 -4 -22 -9 -23 -99
-23 l-95 0 0 395 0 394 98 3 c53 2 100 2 105 0 4 -2 4 -171 1 -375z m226 -11
l0 -394 -71 -7 c-38 -4 -72 -6 -73 -4 -6 7 -26 781 -20 790 3 5 41 9 85 9 l79
0 0 -394z m15194 -1058 c9 -73 20 -150 23 -171 l6 -38 -47 25 c-100 53 -209
40 -287 -34 -23 -22 -43 -39 -45 -38 -5 7 -45 329 -42 340 5 13 224 44 329 47
l45 1 18 -132z m-66 -234 c28 -11 33 -17 22 -23 -14 -8 -175 -31 -215 -31 -17
0 -17 1 -1 19 45 49 126 64 194 35z m-13509 -1233 l31 -48 -2 -563 -3 -563
-77 116 -78 117 0 495 0 495 49 0 c48 0 50 -1 80 -49z m661 -283 l0 -333 -150
228 -150 228 0 104 0 105 150 0 150 0 0 -332z m507 317 c-4 -8 -43 -69 -89
-137 l-83 -123 -3 124 c-1 69 0 131 2 138 4 9 30 13 92 13 71 0 85 -2 81 -15z
m-44 -1587 l-128 -193 -3 565 -2 565 127 190 128 190 3 -562 2 -562 -127 -193z
m-605 772 l142 -216 -2 -563 -3 -564 -147 222 -148 221 0 567 c0 312 4 563 8
558 4 -6 72 -107 150 -225z m-564 -669 l76 -119 -2 -562 -3 -563 -77 116 -78
117 0 565 c0 311 2 565 4 565 2 0 38 -53 80 -119z m1296 -871 l0 -560 -127
-191 -128 -192 -3 563 -2 563 122 188 c68 103 126 188 131 188 4 1 7 -251 7
-559z m-731 20 l141 -215 0 -564 c0 -324 -4 -561 -9 -556 -5 6 -72 106 -150
222 l-141 213 0 567 c0 341 4 563 9 558 5 -6 73 -107 150 -225z m-560 -672
l71 -108 -2 -566 -3 -567 -77 116 -78 117 0 567 c0 322 4 563 9 558 4 -6 41
-58 80 -117z m1170 -1611 c-67 -100 -125 -186 -130 -192 -5 -5 -9 233 -9 557
l0 567 128 192 127 192 3 -566 2 -567 -121 -183z m-610 766 l141 -213 -2 -567
-3 -567 -147 224 -148 223 0 566 c0 323 4 561 9 556 5 -6 72 -106 150 -222z
m-560 -675 l71 -108 -2 -567 -3 -567 -77 121 -78 120 0 564 c0 319 4 559 9
554 4 -6 41 -58 80 -117z m1291 -861 l0 -563 -122 -187 c-68 -103 -126 -187
-130 -187 -5 0 -8 252 -8 560 l0 560 127 190 c69 105 128 190 130 190 1 0 3
-253 3 -563z m-731 16 l141 -213 -2 -565 -3 -565 -147 223 -148 223 0 564 c0
323 4 560 9 555 5 -6 72 -106 150 -222z m-489 -1351 l0 -567 -80 120 -80 120
0 568 0 569 80 -121 80 -121 0 -568z m1098 -933 c-68 -103 -126 -188 -130
-188 -5 -1 -8 251 -8 559 l0 560 128 191 127 192 3 -563 2 -563 -122 -188z
m-613 771 l145 -220 0 -568 0 -567 -150 225 -150 225 0 563 c0 309 2 562 5
562 3 0 71 -99 150 -220z m-487 -1350 l-3 -565 -82 123 -83 124 0 146 c0 81 3
333 7 560 l6 412 79 -118 78 -118 -2 -564z m1095 -945 l-128 -190 -3 565 -2
565 127 190 128 190 3 -565 2 -565 -127 -190z m-463 -10 l0 -570 -150 225
-150 225 0 570 0 570 150 -225 150 -225 0 -570z m-707 117 l77 -118 -2 -565
-3 -564 -82 122 -83 122 0 561 c0 308 3 560 8 560 4 0 42 -53 85 -118z m1170
-1627 l-128 -190 -3 565 -2 564 127 192 128 192 3 -566 2 -567 -127 -190z
m-604 774 l141 -216 0 -569 0 -569 -150 225 -150 225 0 570 c0 326 4 565 9
560 5 -6 72 -107 150 -226z m-569 -659 l80 -120 -2 -567 -3 -568 -82 122 -83
122 0 566 c0 311 2 565 5 565 2 0 41 -54 85 -120z m1173 -1635 l-128 -190 -3
567 -2 568 127 191 128 192 3 -569 2 -569 -127 -190z m-605 780 l140 -211 4
-572 c2 -315 1 -572 -2 -572 -3 0 -71 101 -152 223 l-148 222 0 570 c0 326 4
565 9 560 5 -6 72 -105 149 -220z m-568 -665 l80 -120 -2 -567 -3 -568 -82
122 -83 122 0 566 c0 311 2 565 5 565 2 0 41 -54 85 -120z m1173 -1635 l-128
-190 -3 567 -2 568 127 191 128 192 3 -569 2 -569 -127 -190z m-453 -12 c0
-324 -4 -563 -9 -561 -5 2 -74 102 -155 223 l-146 220 0 575 0 575 155 -234
155 -233 0 -565z"/>
<path d="M46415 55691 c17 -10 1112 -596 2435 -1301 1323 -705 2406 -1283
2406 -1284 1 0 65 -2978 143 -6616 153 -7159 205 -9523 251 -11588 17 -733 30
-1369 30 -1412 l0 -80 729 0 729 0 6 243 c4 133 6 4971 4 10752 l-3 10509
-3325 392 c-1829 216 -3350 395 -3380 398 l-55 6 30 -19z"/>
<path d="M45740 42081 c0 -7374 3 -9222 13 -9218 6 3 183 82 392 177 521 236
1425 636 1864 824 308 133 366 155 380 144 9 -7 189 -175 401 -372 212 -198
400 -373 418 -390 l32 -30 0 7200 -1 7199 -1695 1790 c-932 985 -1719 1815
-1749 1845 l-55 55 0 -9224z m1820 4869 l0 -490 -630 0 -630 0 0 490 0 490
630 0 630 0 0 -490z m0 -1165 l0 -495 -630 0 -630 0 0 495 0 495 630 0 630 0
0 -495z m0 -1165 l0 -490 -630 0 -630 0 0 490 0 490 630 0 630 0 0 -490z m0
-1170 l0 -490 -630 0 -630 0 0 490 0 490 630 0 630 0 0 -490z m0 -1160 l0
-490 -630 0 -630 0 0 490 0 490 630 0 630 0 0 -490z m0 -1170 l0 -490 -630 0
-630 0 0 490 0 490 630 0 630 0 0 -490z m0 -1165 l0 -495 -630 0 -630 0 0 495
0 495 630 0 630 0 0 -495z m0 -1165 l0 -490 -630 0 -630 0 0 490 0 490 630 0
630 0 0 -490z m0 -1170 l0 -490 -630 0 -630 0 0 490 0 490 630 0 630 0 0 -490z"/>
<path d="M34520 41227 l0 -7135 263 -138 c1209 -633 2746 -1471 4165 -2271
239 -134 440 -247 448 -250 12 -4 14 866 14 6110 l0 6115 -2402 2313 c-1321
1273 -2421 2331 -2445 2352 l-43 39 0 -7135z m1520 -1152 l0 -5505 -560 0
-560 0 0 5505 0 5505 560 0 560 0 0 -5505z m1490 -610 l0 -5505 -560 0 -560 0
0 5505 0 5505 560 0 560 0 0 -5505z"/>
<path d="M28910 39821 c0 -3906 3 -7101 6 -7101 3 0 299 137 657 304 1007 470
1557 720 2880 1312 l858 384 240 -125 c132 -69 242 -125 245 -125 2 0 4 1952
4 4338 l0 4337 -2373 1832 c-1304 1007 -2405 1857 -2444 1888 l-73 56 0 -7100z
m4240 2559 l0 -490 -1775 0 -1775 0 0 490 0 490 1775 0 1775 0 0 -490z m0
-1210 l0 -490 -1775 0 -1775 0 0 490 0 490 1775 0 1775 0 0 -490z m-2 -1218
l2 -492 -1772 2 -1773 3 -3 480 c-1 264 0 486 3 493 3 10 363 12 1772 10
l1768 -3 3 -493z"/>
<path d="M42573 44212 l-2443 -2237 0 -5481 0 -5482 374 -216 c205 -118 380
-218 388 -221 7 -3 176 74 373 171 1026 502 2260 1091 3320 1581 231 107 423
198 428 202 4 4 6 3137 5 6964 l-3 6956 -2442 -2237z m-893 -3042 l0 -490
-535 0 -535 0 0 490 0 490 535 0 535 0 0 -490z m0 -1120 l0 -490 -535 0 -535
0 0 490 0 490 535 0 535 0 0 -490z m0 -1120 l0 -490 -535 0 -535 0 0 490 0
490 535 0 535 0 0 -490z m0 -1120 l0 -490 -535 0 -535 0 0 490 0 490 535 0
535 0 0 -490z m0 -1120 l0 -490 -535 0 -535 0 0 490 0 490 535 0 535 0 0 -490z
m0 -1120 l0 -490 -535 0 -535 0 0 490 0 490 535 0 535 0 0 -490z m0 -1120 l0
-490 -535 0 -535 0 0 490 0 490 535 0 535 0 0 -490z"/>
<path d="M31070 29290 l0 -550 550 0 550 0 0 550 0 550 -550 0 -550 0 0 -550z"/>
<path d="M46270 29290 l0 -550 550 0 550 0 0 550 0 550 -550 0 -550 0 0 -550z"/>
<path d="M32380 29270 l0 -550 550 0 550 0 0 550 0 550 -550 0 -550 0 0 -550z"/>
<path d="M47580 29270 l0 -550 550 0 550 0 0 550 0 550 -550 0 -550 0 0 -550z"/>
<path d="M31070 28000 l0 -550 550 0 550 0 0 550 0 550 -550 0 -550 0 0 -550z"/>
<path d="M46270 28000 l0 -550 550 0 550 0 0 550 0 550 -550 0 -550 0 0 -550z"/>
<path d="M32380 27980 l0 -550 550 0 550 0 0 550 0 550 -550 0 -550 0 0 -550z"/>
<path d="M47580 27980 l0 -550 550 0 550 0 0 550 0 550 -550 0 -550 0 0 -550z"/>
<path d="M38310 26999 c-4474 -68 -9179 -508 -13035 -1218 -387 -72 -913 -179
-884 -180 9 -1 155 21 325 49 5070 814 11075 1158 17544 1005 3310 -79 6805
-294 9599 -591 233 -25 425 -43 427 -41 4 4 -799 127 -1256 192 -4079 584
-8396 850 -12720 784z"/>
<path d="M24338 25593 c6 -2 18 -2 25 0 6 3 1 5 -13 5 -14 0 -19 -2 -12 -5z"/>
<path d="M24288 25583 c6 -2 18 -2 25 0 6 3 1 5 -13 5 -14 0 -19 -2 -12 -5z"/>
<path d="M24238 25573 c7 -3 16 -2 19 1 4 3 -2 6 -13 5 -11 0 -14 -3 -6 -6z"/>
<path d="M28688 20063 c-10 -2 -19 -5 -20 -6 -2 -1 -5 -545 -8 -1209 -5 -1199
-5 -1207 -26 -1234 -11 -15 -33 -37 -48 -48 -26 -20 -43 -21 -322 -24 l-294
-3 0 953 c0 524 -4 959 -8 966 -7 9 -48 12 -173 10 l-164 -3 -3 -962 -2 -963
-423 0 c-316 0 -426 -3 -435 -12 -8 -8 -12 -57 -12 -155 0 -132 1 -143 20
-153 14 -8 299 -10 953 -8 852 3 937 5 992 21 135 39 222 123 268 257 l22 65
3 1245 c2 1166 1 1246 -15 1257 -16 13 -263 17 -305 6z"/>
<path d="M31738 20063 c-10 -2 -20 -14 -23 -26 -3 -12 -4 -566 -2 -1232 3
-1325 1 -1264 62 -1385 49 -97 115 -148 240 -187 58 -17 316 -18 7835 -18
6378 0 7791 2 7865 13 49 7 131 29 183 48 64 24 97 32 105 25 21 -17 121 -54
187 -68 91 -20 1028 -31 1166 -13 187 23 278 63 354 155 l35 43 45 -43 c91
-87 200 -142 331 -168 302 -61 606 -2 769 149 l60 56 44 -49 c50 -56 134 -104
222 -129 78 -22 596 -32 728 -15 153 21 252 73 313 164 l29 45 28 -44 c54 -85
158 -145 286 -165 114 -17 607 -7 685 15 113 32 186 90 235 187 61 120 60 90
60 1418 l0 1210 -21 11 c-13 7 -72 10 -165 8 -115 -2 -147 -6 -154 -18 -6 -9
-10 -471 -10 -1195 0 -1129 -1 -1182 -19 -1221 -10 -23 -34 -52 -52 -65 -34
-24 -35 -24 -299 -24 -180 0 -278 4 -305 12 -74 23 -147 75 -180 127 l-30 49
-3 1156 c-2 1069 -3 1157 -19 1169 -23 17 -293 17 -316 0 -16 -12 -17 -101
-19 -1203 -3 -1167 -3 -1191 -23 -1230 -14 -28 -33 -47 -65 -62 -42 -22 -55
-23 -295 -23 -220 0 -255 3 -290 19 -83 38 -129 94 -155 191 -8 29 -13 138
-14 300 -3 279 -13 356 -66 502 -106 290 -363 448 -730 448 -168 0 -284 -24
-404 -85 -153 -76 -257 -189 -319 -345 -55 -139 -67 -230 -75 -542 l-7 -266
-40 -78 c-33 -65 -48 -83 -89 -109 l-49 -30 -463 -5 -463 -5 52 45 c152 132
238 265 289 448 29 103 31 301 5 417 -48 211 -170 371 -348 459 -143 70 -223
88 -424 93 -146 4 -185 2 -272 -16 -317 -65 -513 -252 -574 -546 -17 -82 -20
-122 -16 -225 7 -142 23 -211 77 -326 56 -121 140 -228 245 -312 l40 -32
-7660 0 c-7571 0 -7660 1 -7703 20 -34 15 -48 29 -65 67 l-22 48 -3 1185 c-2
1096 -4 1186 -19 1198 -16 12 -263 16 -305 5z m16424 -1416 c171 -62 264 -193
275 -388 11 -181 -43 -332 -164 -453 -73 -73 -190 -156 -258 -182 -42 -16 -43
-16 -112 20 -137 68 -271 194 -328 306 -53 104 -73 283 -45 405 35 155 158
273 324 311 89 20 224 12 308 -19z m2359 4 c78 -30 132 -71 174 -135 77 -114
112 -284 102 -491 -7 -146 -19 -209 -61 -300 -62 -135 -171 -202 -343 -212
-155 -10 -265 21 -348 98 -55 51 -89 113 -117 217 -29 103 -31 390 -5 496 22
88 66 179 112 233 39 46 133 98 205 113 72 15 217 5 281 -19z"/>
<path d="M47544 19717 c-2 -7 -3 -91 -2 -187 l3 -175 170 -3 c151 -2 171 -1
182 15 16 21 18 315 3 344 -10 18 -23 19 -181 19 -129 0 -171 -3 -175 -13z"/>
<path d="M48056 19714 c-3 -9 -6 -87 -6 -174 0 -87 3 -165 6 -174 5 -14 31
-16 179 -16 148 0 174 2 179 16 3 9 6 87 6 174 0 87 -3 165 -6 174 -5 14 -31
16 -179 16 -148 0 -174 -2 -179 -16z"/>
<path d="M24416 19474 c-13 -13 -16 -44 -16 -183 0 -116 4 -171 12 -179 8 -8
61 -12 173 -12 112 0 165 4 173 12 8 8 12 64 12 185 0 160 -1 173 -19 183 -11
5 -85 10 -170 10 -123 0 -152 -3 -165 -16z"/>
<path d="M24930 19480 c-12 -7 -16 -40 -18 -167 -2 -94 1 -169 7 -186 l11 -27
172 2 173 3 3 180 c2 160 1 181 -15 192 -20 16 -310 18 -333 3z"/>
<path d="M30210 18993 c-258 -43 -464 -197 -569 -424 -104 -223 -129 -583 -60
-852 49 -192 163 -340 321 -415 154 -74 279 -92 647 -92 l243 0 -4 -127 c-3
-114 -7 -135 -32 -188 -31 -69 -64 -107 -121 -140 -76 -44 -106 -48 -445 -54
l-325 -6 0 -155 0 -155 365 0 c351 0 368 1 444 23 233 67 366 200 437 432 23
74 23 81 27 730 3 678 0 745 -38 897 -89 348 -352 536 -745 532 -66 -1 -131
-4 -145 -6z m309 -342 c79 -30 127 -67 171 -133 85 -127 100 -224 100 -645 l0
-333 -253 0 c-278 0 -342 7 -433 51 -150 71 -208 203 -208 474 0 171 15 247
70 360 63 129 156 210 279 242 69 18 207 10 274 -16z"/>
<path d="M26002 18917 c-8 -9 -12 -206 -14 -633 -3 -596 -4 -620 -23 -659 -14
-28 -33 -47 -65 -62 l-44 -23 -1021 0 c-981 0 -1022 1 -1062 19 -30 14 -48 32
-65 63 -23 43 -23 43 -26 528 -2 324 -7 488 -14 497 -16 20 -311 18 -327 -1
-10 -11 -11 -142 -9 -538 4 -458 6 -530 22 -583 48 -169 118 -241 281 -292 57
-17 122 -18 1195 -18 1044 0 1140 1 1197 17 182 51 262 143 299 348 10 58 13
218 14 702 0 610 -1 628 -19 638 -30 16 -306 13 -319 -3z"/>
</g>
</svg>
